<svg height="2894" width="720" xmlns="http://www.w3.org/2000/svg">
<rect height="2894" fill="#555" width="720"></rect>
<text fill="#7f7" font-family="Courier New" font-size="12" xml:space="preserve">
<tspan x="10" y="26">32 megabytes installed</tspan>
<tspan x="10" y="42"></tspan>
<tspan x="10" y="58">node_modules</tspan>
<tspan x="10" y="74">└─┬ email-templates@2.5.4 </tspan>
<tspan x="10" y="90">  ├── bluebird@3.5.0 </tspan>
<tspan x="10" y="106">  ├── consolidate@0.14.5 </tspan>
<tspan x="10" y="122">  ├─┬ debug@2.6.4 </tspan>
<tspan x="10" y="138">  │ └── ms@0.7.3 </tspan>
<tspan x="10" y="154">  ├─┬ glob@6.0.4 </tspan>
<tspan x="10" y="170">  │ ├─┬ inflight@1.0.6 </tspan>
<tspan x="10" y="186">  │ │ └── wrappy@1.0.2 </tspan>
<tspan x="10" y="202">  │ ├── inherits@2.0.3 </tspan>
<tspan x="10" y="218">  │ ├─┬ minimatch@3.0.3 </tspan>
<tspan x="10" y="234">  │ │ └─┬ brace-expansion@1.1.7 </tspan>
<tspan x="10" y="250">  │ │   ├── balanced-match@0.4.2 </tspan>
<tspan x="10" y="266">  │ │   └── concat-map@0.0.1 </tspan>
<tspan x="10" y="282">  │ ├── once@1.4.0 </tspan>
<tspan x="10" y="298">  │ └── path-is-absolute@1.0.1 </tspan>
<tspan x="10" y="314">  ├─┬ juice@2.0.0 </tspan>
<tspan x="10" y="330">  │ ├── batch@0.5.3 </tspan>
<tspan x="10" y="346">  │ ├─┬ cheerio@0.20.0 </tspan>
<tspan x="10" y="362">  │ │ ├─┬ css-select@1.2.0 </tspan>
<tspan x="10" y="378">  │ │ │ ├── boolbase@1.0.0 </tspan>
<tspan x="10" y="394">  │ │ │ ├── css-what@2.1.0 </tspan>
<tspan x="10" y="410">  │ │ │ ├── domutils@1.5.1 </tspan>
<tspan x="10" y="426">  │ │ │ └── nth-check@1.0.1 </tspan>
<tspan x="10" y="442">  │ │ ├─┬ dom-serializer@0.1.0 </tspan>
<tspan x="10" y="458">  │ │ │ └── domelementtype@1.1.3 </tspan>
<tspan x="10" y="474">  │ │ ├── entities@1.1.1 </tspan>
<tspan x="10" y="490">  │ │ ├─┬ htmlparser2@3.8.3 </tspan>
<tspan x="10" y="506">  │ │ │ ├── domelementtype@1.3.0 </tspan>
<tspan x="10" y="522">  │ │ │ ├── domhandler@2.3.0 </tspan>
<tspan x="10" y="538">  │ │ │ ├── entities@1.0.0 </tspan>
<tspan x="10" y="554">  │ │ │ └─┬ readable-stream@1.1.14 </tspan>
<tspan x="10" y="570">  │ │ │   ├── core-util-is@1.0.2 </tspan>
<tspan x="10" y="586">  │ │ │   ├── isarray@0.0.1 </tspan>
<tspan x="10" y="602">  │ │ │   └── string_decoder@0.10.31 </tspan>
<tspan x="10" y="618">  │ │ └─┬ jsdom@7.2.2 </tspan>
<tspan x="10" y="634">  │ │   ├── abab@1.0.3 </tspan>
<tspan x="10" y="650">  │ │   ├── acorn@2.7.0 </tspan>
<tspan x="10" y="666">  │ │   ├── acorn-globals@1.0.9 </tspan>
<tspan x="10" y="682">  │ │   ├── cssstyle@0.2.37 </tspan>
<tspan x="10" y="698">  │ │   ├─┬ escodegen@1.8.1 </tspan>
<tspan x="10" y="714">  │ │   │ ├── esprima@2.7.3 </tspan>
<tspan x="10" y="730">  │ │   │ ├── estraverse@1.9.3 </tspan>
<tspan x="10" y="746">  │ │   │ ├── esutils@2.0.2 </tspan>
<tspan x="10" y="762">  │ │   │ ├─┬ optionator@0.8.2 </tspan>
<tspan x="10" y="778">  │ │   │ │ ├── deep-is@0.1.3 </tspan>
<tspan x="10" y="794">  │ │   │ │ ├── fast-levenshtein@2.0.6 </tspan>
<tspan x="10" y="810">  │ │   │ │ ├── levn@0.3.0 </tspan>
<tspan x="10" y="826">  │ │   │ │ ├── prelude-ls@1.1.2 </tspan>
<tspan x="10" y="842">  │ │   │ │ ├── type-check@0.3.2 </tspan>
<tspan x="10" y="858">  │ │   │ │ └── wordwrap@1.0.0 </tspan>
<tspan x="10" y="874">  │ │   │ └─┬ source-map@0.2.0 </tspan>
<tspan x="10" y="890">  │ │   │   └── amdefine@1.0.1 </tspan>
<tspan x="10" y="906">  │ │   ├── nwmatcher@1.3.9 </tspan>
<tspan x="10" y="922">  │ │   ├── parse5@1.5.1 </tspan>
<tspan x="10" y="938">  │ │   ├── sax@1.2.2 </tspan>
<tspan x="10" y="954">  │ │   ├── symbol-tree@3.2.2 </tspan>
<tspan x="10" y="970">  │ │   ├─┬ tough-cookie@2.3.2 </tspan>
<tspan x="10" y="986">  │ │   │ └── punycode@1.4.1 </tspan>
<tspan x="10" y="1002">  │ │   ├── webidl-conversions@2.0.1 </tspan>
<tspan x="10" y="1018">  │ │   ├─┬ whatwg-url-compat@0.6.5 </tspan>
<tspan x="10" y="1034">  │ │   │ └── tr46@0.0.3 </tspan>
<tspan x="10" y="1050">  │ │   └── xml-name-validator@2.0.1 </tspan>
<tspan x="10" y="1066">  │ ├─┬ commander@2.9.0 </tspan>
<tspan x="10" y="1082">  │ │ └── graceful-readlink@1.0.1 </tspan>
<tspan x="10" y="1098">  │ ├─┬ cross-spawn-async@2.2.5 </tspan>
<tspan x="10" y="1114">  │ │ ├─┬ lru-cache@4.0.2 </tspan>
<tspan x="10" y="1130">  │ │ │ ├── pseudomap@1.0.2 </tspan>
<tspan x="10" y="1146">  │ │ │ └── yallist@2.1.2 </tspan>
<tspan x="10" y="1162">  │ │ └─┬ which@1.2.14 </tspan>
<tspan x="10" y="1178">  │ │   └── isexe@2.0.0 </tspan>
<tspan x="10" y="1194">  │ ├── cssom@0.3.1 </tspan>
<tspan x="10" y="1210">  │ ├── deep-extend@0.4.1 </tspan>
<tspan x="10" y="1226">  │ ├── slick@1.12.2 </tspan>
<tspan x="10" y="1242">  │ └─┬ web-resource-inliner@2.0.0 </tspan>
<tspan x="10" y="1258">  │   ├── async@0.9.2 </tspan>
<tspan x="10" y="1274">  │   ├─┬ clean-css@1.1.7 </tspan>
<tspan x="10" y="1290">  │   │ └── commander@2.0.0 </tspan>
<tspan x="10" y="1306">  │   ├─┬ cli-color@0.3.3 </tspan>
<tspan x="10" y="1322">  │   │ ├── d@0.1.1 </tspan>
<tspan x="10" y="1338">  │   │ ├─┬ es5-ext@0.10.15 </tspan>
<tspan x="10" y="1354">  │   │ │ ├─┬ es6-iterator@2.0.1 </tspan>
<tspan x="10" y="1370">  │   │ │ │ └── d@1.0.0 </tspan>
<tspan x="10" y="1386">  │   │ │ └─┬ es6-symbol@3.1.1 </tspan>
<tspan x="10" y="1402">  │   │ │   └── d@1.0.0 </tspan>
<tspan x="10" y="1418">  │   │ ├─┬ memoizee@0.3.10 </tspan>
<tspan x="10" y="1434">  │   │ │ ├─┬ es6-weak-map@0.1.4 </tspan>
<tspan x="10" y="1450">  │   │ │ │ ├── es6-iterator@0.1.3 </tspan>
<tspan x="10" y="1466">  │   │ │ │ └── es6-symbol@2.0.1 </tspan>
<tspan x="10" y="1482">  │   │ │ ├─┬ event-emitter@0.3.5 </tspan>
<tspan x="10" y="1498">  │   │ │ │ └── d@1.0.0 </tspan>
<tspan x="10" y="1514">  │   │ │ ├── lru-queue@0.1.0 </tspan>
<tspan x="10" y="1530">  │   │ │ └── next-tick@0.2.2 </tspan>
<tspan x="10" y="1546">  │   │ └─┬ timers-ext@0.1.2 </tspan>
<tspan x="10" y="1562">  │   │   └── next-tick@1.0.0 </tspan>
<tspan x="10" y="1578">  │   ├─┬ datauri@0.2.1 </tspan>
<tspan x="10" y="1594">  │   │ ├── mimer@0.2.1 </tspan>
<tspan x="10" y="1610">  │   │ └── templayed@0.2.3 </tspan>
<tspan x="10" y="1626">  │   ├─┬ htmlparser2@3.9.2 </tspan>
<tspan x="10" y="1642">  │   │ └─┬ readable-stream@2.2.9 </tspan>
<tspan x="10" y="1658">  │   │   ├── buffer-shims@1.0.0 </tspan>
<tspan x="10" y="1674">  │   │   ├── isarray@1.0.0 </tspan>
<tspan x="10" y="1690">  │   │   ├── process-nextick-args@1.0.7 </tspan>
<tspan x="10" y="1706">  │   │   ├── string_decoder@1.0.0 </tspan>
<tspan x="10" y="1722">  │   │   └── util-deprecate@1.0.2 </tspan>
<tspan x="10" y="1738">  │   ├── lodash@3.10.1 </tspan>
<tspan x="10" y="1754">  │   ├─┬ request@2.81.0 </tspan>
<tspan x="10" y="1770">  │   │ ├── aws-sign2@0.6.0 </tspan>
<tspan x="10" y="1786">  │   │ ├── aws4@1.6.0 </tspan>
<tspan x="10" y="1802">  │   │ ├── caseless@0.12.0 </tspan>
<tspan x="10" y="1818">  │   │ ├─┬ combined-stream@1.0.5 </tspan>
<tspan x="10" y="1834">  │   │ │ └── delayed-stream@1.0.0 </tspan>
<tspan x="10" y="1850">  │   │ ├── extend@3.0.0 </tspan>
<tspan x="10" y="1866">  │   │ ├── forever-agent@0.6.1 </tspan>
<tspan x="10" y="1882">  │   │ ├─┬ form-data@2.1.4 </tspan>
<tspan x="10" y="1898">  │   │ │ └── asynckit@0.4.0 </tspan>
<tspan x="10" y="1914">  │   │ ├─┬ har-validator@4.2.1 </tspan>
<tspan x="10" y="1930">  │   │ │ ├─┬ ajv@4.11.7 </tspan>
<tspan x="10" y="1946">  │   │ │ │ ├── co@4.6.0 </tspan>
<tspan x="10" y="1962">  │   │ │ │ └─┬ json-stable-stringify@1.0.1 </tspan>
<tspan x="10" y="1978">  │   │ │ │   └── jsonify@0.0.0 </tspan>
<tspan x="10" y="1994">  │   │ │ └── har-schema@1.0.5 </tspan>
<tspan x="10" y="2010">  │   │ ├─┬ hawk@3.1.3 </tspan>
<tspan x="10" y="2026">  │   │ │ ├── boom@2.10.1 </tspan>
<tspan x="10" y="2042">  │   │ │ ├── cryptiles@2.0.5 </tspan>
<tspan x="10" y="2058">  │   │ │ ├── hoek@2.16.3 </tspan>
<tspan x="10" y="2074">  │   │ │ └── sntp@1.0.9 </tspan>
<tspan x="10" y="2090">  │   │ ├─┬ http-signature@1.1.1 </tspan>
<tspan x="10" y="2106">  │   │ │ ├── assert-plus@0.2.0 </tspan>
<tspan x="10" y="2122">  │   │ │ ├─┬ jsprim@1.4.0 </tspan>
<tspan x="10" y="2138">  │   │ │ │ ├── assert-plus@1.0.0 </tspan>
<tspan x="10" y="2154">  │   │ │ │ ├── extsprintf@1.0.2 </tspan>
<tspan x="10" y="2170">  │   │ │ │ ├── json-schema@0.2.3 </tspan>
<tspan x="10" y="2186">  │   │ │ │ └── verror@1.3.6 </tspan>
<tspan x="10" y="2202">  │   │ │ └─┬ sshpk@1.13.0 </tspan>
<tspan x="10" y="2218">  │   │ │   ├── asn1@0.2.3 </tspan>
<tspan x="10" y="2234">  │   │ │   ├── assert-plus@1.0.0 </tspan>
<tspan x="10" y="2250">  │   │ │   ├── bcrypt-pbkdf@1.0.1 </tspan>
<tspan x="10" y="2266">  │   │ │   ├─┬ dashdash@1.14.1 </tspan>
<tspan x="10" y="2282">  │   │ │   │ └── assert-plus@1.0.0 </tspan>
<tspan x="10" y="2298">  │   │ │   ├── ecc-jsbn@0.1.1 </tspan>
<tspan x="10" y="2314">  │   │ │   ├─┬ getpass@0.1.6 </tspan>
<tspan x="10" y="2330">  │   │ │   │ └── assert-plus@1.0.0 </tspan>
<tspan x="10" y="2346">  │   │ │   ├── jodid25519@1.0.2 </tspan>
<tspan x="10" y="2362">  │   │ │   ├── jsbn@0.1.1 </tspan>
<tspan x="10" y="2378">  │   │ │   └── tweetnacl@0.14.5 </tspan>
<tspan x="10" y="2394">  │   │ ├── is-typedarray@1.0.0 </tspan>
<tspan x="10" y="2410">  │   │ ├── isstream@0.1.2 </tspan>
<tspan x="10" y="2426">  │   │ ├── json-stringify-safe@5.0.1 </tspan>
<tspan x="10" y="2442">  │   │ ├─┬ mime-types@2.1.15 </tspan>
<tspan x="10" y="2458">  │   │ │ └── mime-db@1.27.0 </tspan>
<tspan x="10" y="2474">  │   │ ├── oauth-sign@0.8.2 </tspan>
<tspan x="10" y="2490">  │   │ ├── performance-now@0.2.0 </tspan>
<tspan x="10" y="2506">  │   │ ├── qs@6.4.0 </tspan>
<tspan x="10" y="2522">  │   │ ├── safe-buffer@5.0.1 </tspan>
<tspan x="10" y="2538">  │   │ ├── stringstream@0.0.5 </tspan>
<tspan x="10" y="2554">  │   │ ├── tunnel-agent@0.6.0 </tspan>
<tspan x="10" y="2570">  │   │ └── uuid@3.0.1 </tspan>
<tspan x="10" y="2586">  │   ├─┬ uglify-js@2.8.22 </tspan>
<tspan x="10" y="2602">  │   │ ├── source-map@0.5.6 </tspan>
<tspan x="10" y="2618">  │   │ ├── uglify-to-browserify@1.0.2 </tspan>
<tspan x="10" y="2634">  │   │ └─┬ yargs@3.10.0 </tspan>
<tspan x="10" y="2650">  │   │   ├── camelcase@1.2.1 </tspan>
<tspan x="10" y="2666">  │   │   ├─┬ cliui@2.1.0 </tspan>
<tspan x="10" y="2682">  │   │   │ ├─┬ center-align@0.1.3 </tspan>
<tspan x="10" y="2698">  │   │   │ │ ├─┬ align-text@0.1.4 </tspan>
<tspan x="10" y="2714">  │   │   │ │ │ ├─┬ kind-of@3.2.0 </tspan>
<tspan x="10" y="2730">  │   │   │ │ │ │ └── is-buffer@1.1.5 </tspan>
<tspan x="10" y="2746">  │   │   │ │ │ ├── longest@1.0.1 </tspan>
<tspan x="10" y="2762">  │   │   │ │ │ └── repeat-string@1.6.1 </tspan>
<tspan x="10" y="2778">  │   │   │ │ └── lazy-cache@1.0.4 </tspan>
<tspan x="10" y="2794">  │   │   │ ├── right-align@0.1.3 </tspan>
<tspan x="10" y="2810">  │   │   │ └── wordwrap@0.0.2 </tspan>
<tspan x="10" y="2826">  │   │   ├── decamelize@1.2.0 </tspan>
<tspan x="10" y="2842">  │   │   └── window-size@0.1.0 </tspan>
<tspan x="10" y="2858">  │   └── xtend@4.0.1 </tspan>
<tspan x="10" y="2874">  └── lodash@4.17.4</tspan>
</text>
</svg>
